Coordinates
version=1
nRows=12
nColumns=46
inDegrees=yes

Units are S.I. units (second, meters, Newtons, ...)
Angles are in degrees.

endheader
time	pelvis_tilt	pelvis_list	pelvis_rotation	pelvis_tx	pelvis_ty	pelvis_tz	bb_angle	bb_tx	bb_ty	bb_tz	hip_flexion_r	hip_adduction_r	hip_rotation_r	knee_angle_r	knee_angle_r_beta	ankle_angle_r	subtalar_angle_r	mtp_angle_r	crank_angle_r	hip_flexion_l	hip_adduction_l	hip_rotation_l	knee_angle_l	knee_angle_l_beta	ankle_angle_l	subtalar_angle_l	mtp_angle_l	crank_angle_l	lumbar_extension	lumbar_bending	lumbar_rotation	arm_flex_r	arm_add_r	arm_rot_r	elbow_flex_r	pro_sup_r	wrist_flex_r	wrist_dev_r	arm_flex_l	arm_add_l	arm_rot_l	elbow_flex_l	pro_sup_l	wrist_flex_l	wrist_dev_l
      0.00500000	    -11.45332201	     -1.12746116	     -0.57629489	      0.07508907	      1.10452861	     -0.25984986	      0.00000000	      0.50000000	      0.00000000	      0.25000000	     74.13499911	     -2.35671664	      0.78678763	     81.42652541	      1.42116097	      6.19785697	    -11.44416387	      0.00000000	      0.00000000	     47.82720700	     -7.73157954	      1.16652517	     77.87962232	      1.35925583	      9.40526336	     -6.80168680	      0.00000000	      0.00000000	    -50.18109428	      0.10460259	      3.80143210	     89.07633035	    -11.65741689	     43.94099974	     20.52172170	     27.55231443	      0.00000000	      0.00000000	     89.17442697	     -7.61761752	     44.10535490	     22.14958854	     27.61372671	      0.00000000	      0.00000000
      0.01000000	    -11.45072362	     -1.10784713	     -0.58856932	      0.07518667	      1.10451806	     -0.25984037	      0.00000000	      0.50000000	      0.00000000	      0.25000000	     74.14973000	     -2.35311494	      0.81190379	     81.46564927	      1.42184381	      6.18836871	    -11.44462548	      0.00000000	      0.00000000	     47.80074143	     -7.72263804	      1.14162431	     77.85768386	      1.35887293	      9.39566371	     -6.80345214	      0.00000000	      0.00000000	    -50.17666333	      0.10442422	      3.72987605	     89.09575523	    -11.71534688	     44.89691911	     20.46640403	     27.78402880	      0.00000000	      0.00000000	     89.18405843	     -8.14187681	     45.77182149	     22.39367315	     27.98253854	      0.00000000	      0.00000000
      0.01500000	    -11.47657885	     -1.13064823	     -0.57264990	      0.07524227	      1.10448263	     -0.25988572	      0.00000000	      0.50000000	      0.00000000	      0.25000000	     74.17938285	     -2.36180934	      0.78566511	     81.47901468	      1.42207708	      6.18448746	    -11.43856905	      0.00000000	      0.00000000	     47.82444220	     -7.71893279	      1.17982097	     77.84907709	      1.35872271	      9.41286094	     -6.80169205	      0.00000000	      0.00000000	    -50.15313086	      0.13823850	      3.77877625	     89.06560753	    -11.54493819	     43.50818840	     20.28178316	     28.88177646	      0.00000000	      0.00000000	     89.18018315	     -7.80778382	     44.62234231	     21.93835382	     29.05903500	      0.00000000	      0.00000000
      0.02000000	    -11.45544872	     -1.05673614	     -0.62564593	      0.07532303	      1.10458281	     -0.25987610	      0.00000000	      0.50000000	      0.00000000	      0.25000000	     74.20340135	     -2.34534281	      0.87885688	     81.52008624	      1.42279391	      6.11199872	    -11.44615870	      0.00000000	      0.00000000	     47.73749396	     -7.66580066	      1.11408305	     77.79808579	      1.35783275	      9.43401636	     -6.83622838	      0.00000000	      0.00000000	    -50.17451791	      0.04080072	      3.79856346	     89.04837989	    -11.41393807	     42.48425915	     20.04187673	     29.97288940	      0.00000000	      0.00000000	     89.17898871	     -7.53499519	     43.90791264	     21.51535153	     30.14937159	      0.00000000	      0.00000000
      0.02500000	    -11.53132363	     -1.12234484	     -0.66937461	      0.07542413	      1.10456145	     -0.26002962	      0.00000000	      0.50000000	      0.00000000	      0.25000000	     74.28369262	     -2.31509510	      0.82186724	     81.53406143	      1.42303782	      6.11375770	    -11.43824299	      0.00000000	      0.00000000	     47.80821034	     -7.70895299	      1.15707486	     77.80879957	      1.35801974	      9.44308635	     -6.94474496	      0.00000000	      0.00000000	    -50.06894943	      0.10415553	      3.76265805	     89.07439085	    -11.67316513	     44.23177534	     19.79952122	     32.17929039	      0.00000000	      0.00000000	     89.17011413	     -8.27741042	     46.14660376	     21.57225907	     32.36294002	      0.00000000	      0.00000000
      0.03000000	    -11.49147308	     -1.11962257	     -0.68035018	      0.07547001	      1.10466703	     -0.26001955	      0.00000000	      0.50000000	      0.00000000	      0.25000000	     74.25135935	     -2.30524578	      0.81848677	     81.55686607	      1.42343584	      6.10908717	    -11.45014636	      0.00000000	      0.00000000	     47.74017777	     -7.72096847	      1.13464697	     77.77339777	      1.35740186	      9.42451981	     -6.93439257	      0.00000000	      0.00000000	    -50.12061532	      0.09487590	      3.82866340	     89.05747884	    -11.65266182	     43.72924257	     19.79461648	     32.31744181	      0.00000000	      0.00000000	     89.17663781	     -8.01003474	     45.39159532	     21.38063683	     32.44453315	      0.00000000	      0.00000000
      0.03500000	    -11.31329296	     -1.19639753	     -0.64860296	      0.07553541	      1.10510698	     -0.26007735	      0.00000000	      0.50000000	      0.00000000	      0.25000000	     74.01138173	     -2.30565578	      0.69770720	     81.49179870	      1.42230020	      6.01117097	    -11.76961235	      0.00000000	      0.00000000	     47.51737815	     -7.74864330	      1.22725729	     77.72418165	      1.35654288	      9.54027344	     -6.80900421	      0.00000000	      0.00000000	    -50.37302938	      0.15009279	      4.10723684	     88.98849256	    -11.78523376	     41.79291804	     20.48011131	     31.26310694	      0.00000000	      0.00000000	     89.15301522	     -7.40040954	     43.76939693	     21.46712826	     31.41132285	      0.00000000	      0.00000000
      0.04000000	    -11.50101973	     -1.15416287	     -0.66353162	      0.07556185	      1.10466313	     -0.26006575	      0.00000000	      0.50000000	      0.00000000	      0.25000000	     74.27422608	     -2.31053236	      0.78292378	     81.59090275	      1.42402989	      6.09336143	    -11.46158493	      0.00000000	      0.00000000	     47.73711341	     -7.72024903	      1.18974162	     77.74953197	      1.35698532	      9.41882489	     -6.94992699	      0.00000000	      0.00000000	    -50.10469212	      0.14007432	      3.80698937	     89.06923739	    -11.70648205	     44.71932634	     19.99013325	     30.48149151	      0.00000000	      0.00000000	     89.16865327	     -8.23664279	     46.19493457	     21.79324176	     30.70181344	      0.00000000	      0.00000000
      0.04500000	    -11.49083166	     -1.15295637	     -0.69608621	      0.07560881	      1.10464992	     -0.26002326	      0.00000000	      0.50000000	      0.00000000	      0.25000000	     74.28428763	     -2.27237486	      0.80702546	     81.62820432	      1.42468093	      6.09273982	    -11.45710051	      0.00000000	      0.00000000	     47.70746122	     -7.74354451	      1.16457407	     77.73584185	      1.35674639	      9.42668595	     -6.98609852	      0.00000000	      0.00000000	    -50.11871548	      0.10607624	      3.85930984	     89.04001685	    -11.55385346	     43.58525972	     19.99923359	     30.62673691	      0.00000000	      0.00000000	     89.16452177	     -7.89107256	     44.96604807	     21.53153103	     30.80540862	      0.00000000	      0.00000000
      0.05000000	    -11.52357091	     -1.14882471	     -0.71318609	      0.07566116	      1.10464770	     -0.26004024	      0.00000000	      0.50000000	      0.00000000	      0.25000000	     74.31482604	     -2.25636912	      0.81890880	     81.62904742	      1.42469564	      6.11478548	    -11.46919807	      0.00000000	      0.00000000	     47.72253552	     -7.73809716	      1.15925989	     77.71033300	      1.35630117	      9.43388113	     -6.97947843	      0.00000000	      0.00000000	    -50.08165875	      0.08946769	      3.88426705	     89.03313307	    -11.42847781	     42.97310862	     19.86375114	     30.71875886	      0.00000000	      0.00000000	     89.16089483	     -7.71542987	     44.38055331	     21.34901933	     30.90154283	      0.00000000	      0.00000000
      0.05500000	    -11.55021973	     -1.16363068	     -0.74449776	      0.07573060	      1.10452559	     -0.25997285	      0.00000000	      0.50000000	      0.00000000	      0.25000000	     74.36729281	     -2.21768030	      0.80977415	     81.67598362	      1.42551483	      6.08578596	    -11.51290782	      0.00000000	      0.00000000	     47.75248177	     -7.79511254	      1.13399151	     77.72117084	      1.35649033	      9.41692397	     -6.91646528	      0.00000000	      0.00000000	    -50.03403097	      0.05526437	      3.92136149	     89.01530785	    -11.31093207	     42.24498372	     19.68031849	     31.24407889	      0.00000000	      0.00000000	     89.16222351	     -7.53434403	     43.77841289	     21.09688389	     31.43822930	      0.00000000	      0.00000000
      0.06000000	    -11.56514820	     -1.17467678	     -0.70894610	      0.07574701	      1.10456686	     -0.26008077	      0.00000000	      0.50000000	      0.00000000	      0.25000000	     74.37376841	     -2.25986349	      0.78774493	     81.67882947	      1.42556450	      6.15367036	    -11.44059895	      0.00000000	      0.00000000	     47.75075631	     -7.74269178	      1.18981909	     77.67940574	      1.35576139	      9.41150079	     -7.00997105	      0.00000000	      0.00000000	    -50.02586751	      0.11476329	      3.89240075	     89.03181585	    -11.31087273	     42.47680231	     19.61138435	     31.35481696	      0.00000000	      0.00000000	     89.15528932	     -7.59313710	     43.80238308	     21.06435919	     31.55058600	      0.00000000	      0.00000000
